<?xml version="1.0" encoding="utf-8"?>
<!-- Generator: Adobe Illustrator 28.4.1, SVG Export Plug-In . SVG Version: 6.00 Build 0)  -->
<svg version="1.1"
	 id="svg2" xmlns:svg="http://www.w3.org/2000/svg" xmlns:rdf="http://www.w3.org/1999/02/22-rdf-syntax-ns#" xmlns:cc="http://creativecommons.org/ns#" xmlns:dc="http://purl.org/dc/elements/1.1/"
	 xmlns="http://www.w3.org/2000/svg" xmlns:xlink="http://www.w3.org/1999/xlink" x="0px" y="0px" viewBox="0 0 50.3 55.9"
	 style="enable-background:new 0 0 50.3 55.9;" xml:space="preserve">
<style type="text/css">
	.st0{fill:none;stroke:#009EE0;stroke-width:1.4173;}
	.st1{fill-rule:evenodd;clip-rule:evenodd;fill:#009EE0;stroke:#009EE0;stroke-width:0.216;}
</style>
<g id="g4">
	<path id="path6" class="st0" d="M36.3,31.5c-0.8,1.4-2.6,1.9-4,1.1c0,0,0,0,0,0c-1.4-0.8-1.9-2.6-1.1-4c0.8-1.4,2.6-1.9,4-1.1
		C36.6,28.3,37.1,30.1,36.3,31.5z"/>
	<path id="path8" class="st0" d="M30.2,37.9c-0.8,1.4-2.6,1.9-4,1.1c0,0,0,0,0,0c-1.4-0.8-1.9-2.6-1.1-4s2.6-1.9,4-1.1
		C30.5,34.7,31,36.5,30.2,37.9z"/>
	<path id="path10" class="st0" d="M22.2,35.5c-0.8,1.4-2.6,1.9-4,1.1c0,0,0,0,0,0c-1.4-0.8-1.9-2.6-1.1-4s2.6-1.9,4-1.1
		C22.6,32.3,23,34.1,22.2,35.5z"/>
	<path id="path12" class="st0" d="M19.1,27.4c-0.8,1.4-2.6,1.9-4,1.1c0,0,0,0,0,0c-1.4-0.8-1.9-2.6-1.1-4c0.8-1.4,2.6-1.9,4-1.1
		C19.4,24.2,19.9,26,19.1,27.4z"/>
	<path id="path14" class="st0" d="M25.2,21.7c-0.8,1.4-2.6,1.9-4,1.1c0,0,0,0,0,0c-1.4-0.8-1.9-2.6-1.1-4c0.8-1.4,2.6-1.9,4-1.1
		C25.5,18.5,26,20.3,25.2,21.7z"/>
	<path id="path16" class="st0" d="M33.2,23.4c-0.8,1.4-2.6,1.9-4,1.1c0,0,0,0,0,0c-1.4-0.8-1.9-2.6-1.1-4c0.8-1.4,2.6-1.9,4-1.1
		C33.5,20.2,34,22,33.2,23.4z"/>
	<path id="path18" class="st1" d="M28.7,19l3.9,0.1l0.1-4.6L19.3,6.8l4-2.3l9.4,5.4l0.1-4.2l-9.5-5.5L12,6.7l16.8,9.7L28.7,19
		L28.7,19z"/>
	<path id="path20" class="st1" d="M21.5,37l-3.9-0.1l-0.1,4.6l13.4,7.7l-4,2.3l-9.4-5.4l-0.1,4.2l9.5,5.5l11.3-6.5l-16.8-9.7
		L21.5,37L21.5,37z"/>
	<path id="path22" class="st1" d="M31.2,36.3l-2,3.3l3.9,2.4l13.3-7.7l0,4.6L37,44.3l3.6,2.2l9.5-5.5l0-13l-16.8,9.7L31.2,36.3
		L31.2,36.3z"/>
	<path id="path24" class="st1" d="M14.9,29.1l-1.9-3.4L9,27.9l0,15.4l-4-2.3l0-10.8l-3.7,2l0,11l11.3,6.5l0-19.4L14.9,29.1
		L14.9,29.1z"/>
	<path id="path26" class="st1" d="M19.1,20.4l2-3.3l-3.9-2.4L3.8,22.4l0-4.6l9.4-5.4l-3.6-2.2l-9.5,5.5l0,13L16.9,19L19.1,20.4
		L19.1,20.4z"/>
	<path id="path28" class="st1" d="M35.3,26.9l1.9,3.4l4.1-2.2l0-15.4l4,2.3l0,10.8l3.7-2l0-11L37.6,6.3l0,19.4L35.3,26.9L35.3,26.9z
		"/>
</g>
</svg>
