<?xml version="1.0" encoding="utf-8"?>
<!-- Generator: Adobe Illustrator 28.4.1, SVG Export Plug-In . SVG Version: 6.00 Build 0)  -->
<svg version="1.1" id="Layer_1" xmlns="http://www.w3.org/2000/svg" xmlns:xlink="http://www.w3.org/1999/xlink" x="0px" y="0px"
	 viewBox="0 0 23 23.79" style="enable-background:new 0 0 23 23.79;" xml:space="preserve">
<style type="text/css">
	.st0{clip-path:url(#SVGID_00000175312948854591881750000017454823244733548733_);}
	.st1{clip-path:url(#SVGID_00000175312948854591881750000017454823244733548733_);fill-rule:evenodd;clip-rule:evenodd;}
</style>
<g>
	<g>
		<defs>
			<rect id="SVGID_1_" width="23" height="23.79"/>
		</defs>
		<clipPath id="SVGID_00000175322096416247048580000002603280885760084409_">
			<use xlink:href="#SVGID_1_"  style="overflow:visible;"/>
		</clipPath>
		<path style="clip-path:url(#SVGID_00000175322096416247048580000002603280885760084409_);" d="M1.45,16.74h3.87
			c0.27,0,0.64,0.15,0.83,0.34l4.44,4.44c0.57,0.57,1.03,0.37,1.03-0.43V2.7c0-0.8-0.46-0.99-1.03-0.42L6.15,6.71
			C5.97,6.9,5.59,7.05,5.33,7.05H1.45C0.65,7.05,0,7.71,0,8.51v6.78C0,16.09,0.65,16.74,1.45,16.74"/>
		
			<path style="clip-path:url(#SVGID_00000175322096416247048580000002603280885760084409_);fill-rule:evenodd;clip-rule:evenodd;" d="
			M21.06,11.9c0-2.19-0.69-4.32-1.98-6.1c-1.26-1.74-3.03-3.06-5.06-3.79l-0.46-0.16c-0.25-0.09-0.38-0.37-0.29-0.62l0.33-0.91
			c0.09-0.25,0.37-0.38,0.62-0.29l0.45,0.16c2.4,0.85,4.49,2.41,5.98,4.47C22.18,6.77,23,9.3,23,11.9c0,2.6-0.82,5.13-2.35,7.23
			c-1.5,2.06-3.58,3.62-5.98,4.48l-0.45,0.16c-0.25,0.09-0.53-0.04-0.62-0.29l-0.33-0.91c-0.09-0.25,0.04-0.53,0.29-0.62l0.46-0.16
			c2.03-0.72,3.8-2.04,5.06-3.79C20.37,16.22,21.06,14.09,21.06,11.9 M23,11.9"/>
	</g>
	<path d="M13.91,6.93l-0.43-0.22c-0.11-0.06-0.2-0.16-0.24-0.28c-0.04-0.12-0.03-0.25,0.03-0.37L13.7,5.2
		c0.12-0.24,0.41-0.33,0.65-0.21l0.43,0.22c1.26,0.63,2.34,1.58,3.13,2.75c0.79,1.17,1.21,2.54,1.22,3.95
		c-0.01,1.41-0.43,2.78-1.22,3.95c-0.79,1.17-1.87,2.11-3.13,2.74l-0.43,0.22c-0.24,0.12-0.53,0.02-0.65-0.21l-0.44-0.86
		c-0.12-0.24-0.02-0.53,0.21-0.65l0.43-0.22c0.97-0.49,1.79-1.21,2.4-2.1c0.57-0.85,0.88-1.84,0.88-2.86c0-1.02-0.31-2.02-0.88-2.86
		C15.7,8.14,14.88,7.42,13.91,6.93"/>
</g>
</svg>
