<?xml version="1.0" encoding="utf-8"?>
<!-- Generator: Adobe Illustrator 28.4.1, SVG Export Plug-In . SVG Version: 6.00 Build 0)  -->
<svg version="1.1" id="Social_Media_Icons" xmlns="http://www.w3.org/2000/svg" xmlns:xlink="http://www.w3.org/1999/xlink" x="0px"
	 y="0px" viewBox="0 0 22.96 19.19" width="23" height="20" style="enable-background:new 0 0 22.96 19.19;" xml:space="preserve">
<style type="text/css">
	.st0{fill:#FFFFFF;}
</style>
<path id="Telegram" class="st0" d="M21.39,0.08L0.59,8.13c-0.01,0-0.02,0.01-0.04,0.02c-0.17,0.1-1.35,0.82,0.31,1.46l0.02,0.01
	l4.95,1.6c0.08,0.02,0.16,0.01,0.23-0.03l12.28-7.66c0.03-0.02,0.06-0.03,0.1-0.04c0.17-0.03,0.66-0.08,0.35,0.31
	c-0.35,0.45-8.74,7.97-9.67,8.8c-0.05,0.05-0.09,0.12-0.09,0.19l-0.41,4.84c0,0.1,0.05,0.19,0.13,0.25
	c0.11,0.07,0.26,0.06,0.37-0.03l2.94-2.63c0.1-0.09,0.24-0.09,0.34-0.02l5.13,3.73l0.02,0.01c0.12,0.08,1.47,0.86,1.85-0.89
	l3.54-16.85c0-0.05,0.05-0.64-0.37-0.99c-0.44-0.36-1.06-0.18-1.16-0.16C21.41,0.07,21.4,0.07,21.39,0.08z"/>
</svg>
