<?xml version="1.0" encoding="utf-8"?>
<!-- Generator: Adobe Illustrator 28.4.1, SVG Export Plug-In . SVG Version: 6.00 Build 0)  -->
<svg version="1.1" id="Layer_1" xmlns="http://www.w3.org/2000/svg" xmlns:xlink="http://www.w3.org/1999/xlink" x="0px" y="0px"
	 viewBox="0 0 23 23" width="23" height="23" style="enable-background:new 0 0 23 23;" xml:space="preserve">
<style type="text/css">
	.st0{fill:#FFFFFF;}
</style>
<g>
	<path class="st0" d="M11.5,0C5.16,0,0,5.16,0,11.5c-0.01,2.43,0.76,4.78,2.19,6.74l-1.43,4.27l4.42-1.41
		c1.88,1.24,4.08,1.91,6.33,1.9C17.84,23,23,17.84,23,11.5S17.84,0,11.5,0z M18.19,16.24c-0.28,0.79-1.38,1.43-2.25,1.62
		c-0.61,0.13-1.38,0.23-4.03-0.87c-3.38-1.4-5.56-4.83-5.73-5.05c-0.16-0.22-1.36-1.82-1.36-3.47c0-1.65,0.84-2.45,1.17-2.79
		c0.28-0.29,0.73-0.41,1.17-0.41c0.14,0,0.27,0,0.38,0.01c0.34,0.02,0.51,0.04,0.73,0.57c0.28,0.67,0.95,2.32,1.03,2.49
		C9.4,8.5,9.49,8.73,9.37,8.95C9.26,9.18,9.16,9.28,9,9.48c-0.17,0.2-0.34,0.34-0.5,0.55c-0.16,0.19-0.33,0.38-0.14,0.72
		c0.2,0.33,0.87,1.43,1.86,2.31c1.28,1.15,2.32,1.51,2.69,1.67c0.28,0.11,0.61,0.08,0.81-0.13c0.26-0.28,0.58-0.74,0.9-1.19
		c0.23-0.33,0.52-0.37,0.83-0.25c0.31,0.11,1.95,0.92,2.29,1.09c0.34,0.17,0.56,0.25,0.64,0.4C18.47,14.79,18.47,15.45,18.19,16.24z
		"/>
</g>
</svg>
