<?xml version="1.0" encoding="utf-8"?>
<!-- Generator: Adobe Illustrator 28.4.1, SVG Export Plug-In . SVG Version: 6.00 Build 0)  -->
<svg version="1.1" id="Layer_1" xmlns="http://www.w3.org/2000/svg" xmlns:xlink="http://www.w3.org/1999/xlink" x="0px" y="0px"
	 viewBox="0 0 23.1 16.5" width="23" height="17" style="enable-background:new 0 0 23.1 16.5;" xml:space="preserve">
<style type="text/css">
	.st0{fill:#FFFFFF;}
</style>
<g>
	<path class="st0" d="M11.55,7.27l10.54-6.78C21.67,0.18,21.15,0,20.62,0H2.47C1.95,0,1.43,0.18,1.01,0.49L11.55,7.27z M11.55,7.27"
		/>
	<path class="st0" d="M11.14,9.01L0.08,1.86C0.03,2.06,0,2.27,0,2.48v11.55c0,1.37,1.11,2.48,2.47,2.48h18.15
		c1.37,0,2.48-1.11,2.48-2.48V2.48c0-0.21-0.03-0.41-0.08-0.61L12,8.94c0,0-0.24,0.17-0.65,0.13 M12,8.94"/>
</g>
</svg>
