<?xml version="1.0" encoding="utf-8"?>
<!-- Generator: Adobe Illustrator 28.4.1, SVG Export Plug-In . SVG Version: 6.00 Build 0)  -->
<svg version="1.1" id="Layer_1" xmlns="http://www.w3.org/2000/svg" xmlns:xlink="http://www.w3.org/1999/xlink" x="0px" y="0px"
	 viewBox="0 0 22.97 22.97" width="23" height="23" style="enable-background:new 0 0 22.97 22.97;" xml:space="preserve">
<style type="text/css">
	.st0{fill:#FFFFFF;}
</style>
<path class="st0" d="M17.54,14.34c-1.58-0.14-2.44,2.01-3.59,2.59c-1.86,1-5.31-2.59-5.31-2.59s-3.59-3.45-2.73-5.31
	c0.72-1.15,2.88-2.01,2.73-3.59C8.49,3.99,5.32-1.19,3.74,0.25C0.29,3.42,0,4.71,0,7.3c-0.14,4.45,5.61,10.06,5.61,10.06
	c0.58,0.58,5.61,5.75,10.06,5.61c2.58,0,3.88-0.28,7.05-3.74C24.16,17.65,19.13,14.48,17.54,14.34"/>
</svg>
